# xmcd CD database file
#
# Track frame offsets:
#	150
#	13563
#	27770
#	38133
#	51780
#	63490
#	75698
#	88260
#	98538
#	113495
#
# Disc length: 1639 seconds
#
# Revision: 4
# Processed by: cddbd v1.5.2PL0 Copyright (c) Steve Scherf et al.
# Submitted via: jetAudio 7
#
DISCID=6e06650a
DTITLE=Don Williams - Ruby Tuesday
DYEAR=1900
DGENRE=Country
TTITLE0=Where Do We Go From Here
TTITLE1=Strawberry Fields
TTITLE2=Apartment No. 9
TTITLE3=Ruby Tuesday
TTITLE4=Always Something There To Remind Me
TTITLE5=Follow Me Back To Louisville
TTITLE6=On Her Way To Be A Woman
TTITLE7=Take My Hand For A While
TTITLE8=Long Walk From Childhood
TTITLE9=In My Life
EXTD=
EXTT0=
EXTT1=
EXTT2=
EXTT3=
EXTT4=
EXTT5=
EXTT6=
EXTT7=
EXTT8=
EXTT9=
PLAYORDER=
